<?xml version="1.0" encoding="utf-8"?>

<!DOCTYPE svg PUBLIC "-//W3C//DTD SVG 1.1//EN" "http://www.w3.org/Graphics/SVG/1.1/DTD/svg11.dtd">
<!-- Uploaded to: SVG Repo, www.svgrepo.com, Generator: SVG Repo Mixer Tools -->
<svg height="800px" width="800px" version="1.1" id="_x32_" xmlns="http://www.w3.org/2000/svg" xmlns:xlink="http://www.w3.org/1999/xlink" 
	 viewBox="0 0 512 512"  xml:space="preserve">
<style type="text/css">
	.st0{fill:#000000;}
</style>
<g>
	<path class="st0" d="M435.515,179.515c0.016-49.53-20.108-94.492-52.577-126.938C350.492,20.109,305.538-0.007,256.008,0
		C206.47-0.007,161.516,20.109,129.07,52.577c-32.469,32.446-52.585,77.408-52.585,126.938c0,49.538,20.116,94.492,52.585,126.938
		c8.207,8.215,17.232,15.634,26.912,22.15c-1.036,0.982-2.104,1.956-3.055,3.016c-2.962,3.32-5.448,7.006-7.217,11.09
		c-1.777,4.084-2.79,8.589-2.79,13.188c-0.008,4.918,1.161,9.726,3.164,14.028c3.539,7.568,9.368,13.655,16.414,18.799
		c10.631,7.677,24.333,13.42,40.24,17.473c0.732,0.188,1.536,0.32,2.284,0.499c0.654,0.873,1.309,1.816,1.964,2.892
		c2.836,4.669,5.409,11.262,7.42,18.822c3.055,11.34,4.894,24.785,5.922,37.442c1.014,12.689,1.248,24.605,1.248,33.179
		c0,3.265-0.031,6.04-0.062,8.215c-0.039,2.197-0.07,3.678-0.078,4.754h23.974c0-0.515,0.031-2.175,0.062-4.388
		c0.039-2.245,0.078-5.16,0.078-8.581c-0.016-13.726-0.53-35.572-3.881-57.012c-1.66-10.576-4.006-21.059-7.513-30.63
		c7.092,0.647,14.34,1.084,21.853,1.091c6.625-0.007,13.094-0.311,19.391-0.818c-1.238,3.422-2.368,6.929-3.343,10.537
		c-3.609,13.491-5.542,28.128-6.648,41.72c-1.099,13.585-1.325,26.102-1.325,35.104c0,3.429,0.031,6.344,0.062,8.581
		c0.031,2.221,0.062,3.881,0.062,4.396h23.974c0-1.076-0.031-2.557-0.07-4.754c-0.031-2.175-0.062-4.957-0.062-8.223
		c-0.008-13.047,0.538-33.942,3.577-53.302c1.512-9.657,3.663-18.923,6.454-26.421c1.395-3.749,2.946-7.046,4.559-9.711
		c0.476-0.795,0.966-1.52,1.45-2.205c10.303-2.299,19.835-5.292,28.236-8.986c10.172-4.505,18.846-9.953,25.486-16.843
		c3.305-3.46,6.103-7.31,8.105-11.628c2.011-4.302,3.18-9.111,3.172-14.028c0.008-4.52-0.974-8.932-2.689-12.954
		c-2.338-5.494-5.978-10.21-10.334-14.371c9.664-6.5,18.674-13.912,26.872-22.119C415.407,274.007,435.531,229.053,435.515,179.515z
		 M344.171,359.841c-1.169,2.587-3.974,6.041-8.744,9.485c-7.108,5.199-18.316,10.179-32.048,13.639
		c-13.733,3.492-29.99,5.541-47.371,5.541c-26.475,0.031-50.394-4.832-66.652-12.042c-8.121-3.562-14.262-7.723-17.848-11.504
		c-1.808-1.886-2.986-3.639-3.679-5.12c-0.686-1.504-0.927-2.712-0.935-3.943c0-1.154,0.218-2.284,0.811-3.656
		c0.873-2.034,2.712-4.614,5.83-7.35c1.325-1.169,2.93-2.353,4.691-3.546c23.545,11.333,49.944,17.685,77.782,17.685
		c27.824,0,54.206-6.345,77.736-17.669c3.227,2.175,5.845,4.357,7.606,6.391c1.48,1.691,2.424,3.235,2.993,4.56
		c0.561,1.34,0.764,2.447,0.772,3.585C345.107,357.129,344.858,358.337,344.171,359.841z M256.008,335.057
		c-42.991,0-81.804-17.388-109.986-45.548c-28.167-28.19-45.555-67.003-45.563-109.994c0.008-42.99,17.396-81.796,45.563-109.986
		c28.182-28.167,66.995-45.548,109.986-45.556c42.991,0.008,81.797,17.388,109.987,45.556
		c28.167,28.19,45.547,66.995,45.555,109.986c-0.008,42.991-17.388,81.804-45.555,109.994
		C337.805,317.668,298.999,335.057,256.008,335.057z"/>
	<path class="st0" d="M134.097,155.292c-0.39,1.278-0.764,2.557-1.138,3.827c3.982,1.622,8.09,5.962,9.571,12.135
		c1.558,6.064,0.187,13.663-4.1,18.55c-4.208,4.988-10.397,6.289-15.198,4.388c-4.871-1.856-8.215-6.579-9.524-11.208
		c-0.935,0.397-1.87,0.787-2.79,1.169c1.216,5.697,4.691,12.189,10.942,15.354c3.071,1.574,6.734,2.198,10.468,1.496
		c3.726-0.694,7.482-2.837,10.436-6.22c2.962-3.351,4.941-7.833,5.658-12.4c0.733-4.575,0.311-9.15-0.998-13.078
		C144.79,161.332,139.047,156.726,134.097,155.292z"/>
	<path class="st0" d="M215.761,153.71c-0.452,1.348-0.904,2.712-1.356,4.069c5.019,1.8,10.07,6.492,11.893,13.046
		c1.917,6.438,0.28,14.465-5.019,19.711c-5.191,5.346-12.985,6.905-19.228,4.949c-6.336-1.887-10.888-6.983-12.665-12.065
		c-1.294,0.444-2.588,0.872-3.866,1.309c1.668,6.243,6.516,13.258,14.668,16.523c4.014,1.629,8.682,2.167,13.374,1.341
		c4.684-0.826,9.306-3.196,12.922-6.828c3.616-3.639,6.01-8.339,6.89-13.164c0.888-4.808,0.374-9.672-1.215-13.803
		C228.964,160.35,221.965,155.386,215.761,153.71z"/>
	<path class="st0" d="M322.053,168.939c-3.132-8.324-10.046-13.39-16.25-15.182c-0.413,1.348-0.834,2.697-1.254,4.045
		c5.034,1.894,10.07,6.617,11.878,13.101c1.901,6.391,0.311,14.302-4.942,19.555c-5.144,5.37-12.984,7.062-19.344,5.168
		c-6.469-1.824-11.192-6.945-13.047-12.112c-1.372,0.452-2.736,0.896-4.107,1.356c1.73,6.383,6.804,13.452,15.112,16.601
		c4.092,1.567,8.823,2.042,13.53,1.106c4.692-0.911,9.29-3.358,12.852-6.99c3.57-3.64,5.9-8.316,6.758-13.055
		C324.11,177.777,323.611,173.054,322.053,168.939z"/>
	<path class="st0" d="M398.791,169.719c-2.33-7.654-7.614-12.47-12.548-14.262c-0.312,1.246-0.623,2.494-0.943,3.756
		c4.014,1.847,7.888,6.297,9.282,12.275c1.45,5.908,0.281,13.148-3.796,18.074c-3.982,5.011-10.248,6.75-15.47,5.042
		c-5.284-1.613-9.26-6.445-10.818-11.34c-1.169,0.428-2.338,0.865-3.523,1.302c1.465,6.056,5.752,12.766,12.586,15.588
		c3.375,1.403,7.21,1.746,10.959,0.795c3.748-0.942,7.334-3.296,10.061-6.702c2.728-3.429,4.458-7.716,5.098-12.057
		C400.319,177.84,399.96,173.506,398.791,169.719z"/>
	<path class="st0" d="M162.263,131.622c3.57,1.341,7.848,1.668,12.237,0.678c4.388-0.99,8.838-3.406,12.392-6.944
		c3.57-3.531,6.032-7.981,7.092-12.4c1.075-4.396,0.841-8.698-0.382-12.275c-2.471-7.272-8.534-11.216-14.014-12.377
		c-0.506,1.153-1.021,2.33-1.535,3.507c4.427,1.333,8.728,5.144,10.022,10.841c1.388,5.619-0.553,12.938-5.767,18.012
		c-5.113,5.167-12.416,6.967-17.988,5.432c-5.674-1.473-9.431-5.939-10.678-10.444c-1.2,0.468-2.386,0.943-3.554,1.411
		C151.15,122.652,155.023,128.934,162.263,131.622z"/>
	<path class="st0" d="M248.292,129.783c4.1,1.543,8.885,2.026,13.639,1.168c4.754-0.857,9.415-3.164,12.969-6.617
		c3.578-3.452,5.853-7.864,6.617-12.267c0.772-4.403,0.156-8.753-1.472-12.423c-3.305-7.482-10.148-11.746-16.165-13.234
		c-0.421,1.146-0.826,2.292-1.247,3.453c4.895,1.59,9.883,5.666,11.784,11.496c1.987,5.728,0.545,13.086-4.7,18.004
		c-5.136,5.058-13.054,6.632-19.406,4.793c-6.454-1.738-11.06-6.562-12.774-11.286c-1.341,0.42-2.674,0.857-4.014,1.278
		C235.089,120.009,239.961,126.712,248.292,129.783z"/>
	<path class="st0" d="M336.089,130.983c3.874,1.629,8.254,2.276,12.494,1.591c4.224-0.655,8.23-2.728,11.184-5.948
		c2.954-3.202,4.715-7.357,5.136-11.597c0.444-4.24-0.343-8.488-2.026-12.189c-3.367-7.498-9.906-12.128-15.588-13.912
		c-0.265,1.122-0.537,2.245-0.81,3.375c4.653,1.816,9.477,6.141,11.566,11.947c2.151,5.721,1.302,12.766-3.086,17.365
		c-4.264,4.692-11.317,5.955-17.287,3.928c-6.056-1.941-10.716-6.874-12.697-11.636c-1.238,0.366-2.501,0.724-3.748,1.091
		C323.144,120.867,328.226,127.694,336.089,130.983z"/>
	<path class="st0" d="M192.59,238.85c-3.391-7.888-10.218-12.915-16.063-14.746c-0.351,1.279-0.702,2.556-1.045,3.819
		c4.738,1.91,9.703,6.516,11.738,12.596c2.128,5.993,1.045,13.062-3.468,17.426c-4.419,4.466-11.355,5.456-17.123,3.46
		c-5.861-1.917-10.318-6.593-12.282-11.208c-1.123,0.304-2.245,0.616-3.359,0.928c1.948,5.651,6.82,12.026,14.395,15.151
		c3.74,1.566,7.996,2.213,12.174,1.707c4.177-0.523,8.23-2.323,11.301-5.323c3.086-2.978,5.019-7.022,5.572-11.27
		C194.998,247.142,194.281,242.731,192.59,238.85z"/>
	<path class="st0" d="M281.338,252.341c0.974-4.318,0.576-8.737-0.92-12.594c-2.993-7.834-9.976-12.712-16.258-14.372
		c-0.452,1.325-0.896,2.642-1.34,3.951c5.081,1.761,10.116,6.282,11.831,12.338c1.808,5.994,0.046,13.219-5.191,17.848
		c-5.144,4.747-12.735,6.118-18.924,4.435c-6.266-1.606-10.911-6.126-12.813-10.74c-1.309,0.374-2.618,0.764-3.92,1.138
		c1.824,5.705,6.851,11.862,14.879,14.59c3.959,1.372,8.511,1.792,13.07,1.044c4.552-0.756,9.064-2.79,12.626-5.978
		C277.955,260.828,280.372,256.65,281.338,252.341z"/>
	<path class="st0" d="M350.586,223.691c-0.452,1.301-0.912,2.587-1.371,3.881c4.481,1.542,8.69,5.72,9.875,11.526
		c1.262,5.721-0.71,12.852-5.784,17.7c-4.972,4.903-12.127,6.71-17.754,5.331c-5.713-1.302-9.711-5.549-11.129-10.046
		c-1.294,0.436-2.572,0.88-3.873,1.325c1.254,5.58,5.463,11.464,12.742,13.795c3.593,1.161,7.81,1.356,12.08,0.366
		c4.272-0.974,8.558-3.25,12.002-6.586c3.43-3.32,5.845-7.544,6.952-11.8c1.099-4.271,0.99-8.527-0.11-12.205
		C362.004,229.544,356.135,225.101,350.586,223.691z"/>
	<path class="st0" d="M215.277,287.67c-0.311,1.013-0.624,2.01-0.936,3c4.754,1.489,9.665,5.043,11.675,9.439
		c2.089,4.372,1.076,9.212-3.117,12.15c-4.107,2.993-10.599,3.78-16.243,2.697c-5.704-1.052-10.35-4.053-12.547-7.342
		c-1.115,0.249-2.229,0.499-3.336,0.748c2.26,4.046,7.467,8.098,14.855,9.758c3.656,0.826,7.692,1.083,11.598,0.639
		c3.904-0.452,7.638-1.637,10.482-3.593c2.845-1.925,4.669-4.576,5.184-7.482c0.545-2.899-0.125-6.04-1.754-8.854
		C227.873,293.079,221.139,289.104,215.277,287.67z"/>
	<path class="st0" d="M298.134,287.717c-0.492,1.029-0.974,2.058-1.465,3.071c4.528,1.239,8.776,4.606,9.844,8.978
		c1.153,4.341-1.076,9.376-6.134,12.408c-4.988,3.117-11.777,3.928-17.107,2.938c-5.409-0.95-9.267-3.718-10.74-6.812
		c-1.2,0.273-2.401,0.546-3.601,0.819c1.379,3.772,5.487,7.466,12.314,9.041c3.374,0.81,7.311,1.029,11.378,0.607
		c4.069-0.46,8.223-1.66,11.683-3.702c3.46-2.019,6.025-4.793,7.28-7.809c1.254-2.993,1.302-6.188,0.273-8.986
		C309.801,292.541,303.784,288.87,298.134,287.717z"/>
	<path class="st0" d="M201.015,68.274c3.57,1.076,7.872,1.325,12.268,0.538c4.396-0.787,8.823-2.681,12.314-5.362
		c3.507-2.681,5.876-5.97,6.882-9.087c1.021-3.125,0.787-6.056-0.358-8.441c-2.33-4.832-7.88-7.248-12.985-8.152
		c-0.499,0.686-0.998,1.387-1.488,2.104c4.123,0.974,8.09,3.422,9.29,7.264c1.262,3.756-0.577,8.955-5.721,12.727
		c-5.035,3.843-12.362,5.261-17.911,4.038c-5.666-1.154-9.306-4.684-10.35-8.098c-1.231,0.343-2.463,0.678-3.694,1.022
		C190.041,61.088,193.751,66.115,201.015,68.274z"/>
	<path class="st0" d="M283.489,67.51c3.85,1.239,8.277,1.738,12.588,1.154c4.294-0.577,8.393-2.261,11.371-4.809
		c2.977-2.548,4.668-5.791,4.972-8.94c0.312-3.172-0.64-6.204-2.432-8.698c-3.663-5.043-10.116-7.576-15.533-8.448
		c-0.257,0.686-0.507,1.379-0.772,2.096c4.451,0.966,9.244,3.515,11.472,7.482c2.276,3.873,1.622,9.126-2.766,12.696
		c-4.264,3.632-11.418,4.715-17.326,3.234c-6.002-1.418-10.444-5.082-12.221-8.425c-1.2,0.28-2.401,0.569-3.616,0.857
		C270.902,59.856,275.664,65.001,283.489,67.51z"/>
</g>
</svg>